<svg width="587" height="200" viewBox="0 0 587 200" fill="none" xmlns="http://www.w3.org/2000/svg">
<path fill-rule="evenodd" clip-rule="evenodd" d="M94.7015 0L189.403 46.7937V153.206L94.7015 200L0 153.206V46.7937L94.7015 0ZM17.2185 65.9994V142.508L86.0922 176.539V100.031L17.2185 65.9994ZM103.311 100.031V176.539L172.184 142.508V65.9994L146.357 78.7614V112.914L129.138 121.523V87.2697L103.311 100.031ZM161.36 52.1425L138.926 63.2268C138.435 62.8213 137.89 62.4645 137.295 62.1672L72.9087 29.974L94.7015 19.2057L161.36 52.1425ZM53.5439 39.5424L119.807 72.6741L94.7015 85.0795L28.0436 52.1425L53.5439 39.5424Z" fill="#FF6600"/>
<path d="M221 107V31.48H232.52V107H221ZM236.36 107V31.48H247.88V107H236.36ZM251.72 107V31.48H255.56V107H251.72ZM259.4 107V31.48H263.24V107H259.4ZM274.76 107V31.48H278.6V107H274.76Z" fill="#FF6600"/>
<path d="M282.5 107V31.48H294.02V107H282.5ZM297.86 107V31.48H301.7V107H297.86ZM305.54 107V31.48H317.06V107H305.54ZM320.9 107V31.48H324.74V107H320.9ZM336.26 107V31.48H340.1V107H336.26Z" fill="#FF6600"/>
<path d="M344 107V31.48H347.84V107H344ZM351.68 107V31.48H355.52V107H351.68ZM359.36 107V31.48H370.88V107H359.36ZM382.4 107V31.48H386.24V107H382.4ZM390.08 107V31.48H401.6V107H390.08Z" fill="#FF6600"/>
<path d="M405.5 107V31.48H409.34V107H405.5ZM413.18 107V31.48H424.7V107H413.18ZM428.54 107V31.48H440.06V107H428.54ZM443.9 107V31.48H447.74V107H443.9ZM459.26 107V31.48H463.1V107H459.26Z" fill="#FF6600"/>
<path d="M467 107V31.48H478.52V107H467ZM482.36 107V31.48H486.2V107H482.36ZM490.04 107V31.48H493.88V107H490.04ZM497.72 107V31.48H501.56V107H497.72ZM513.08 107V31.48H524.6V107H513.08Z" fill="#FF6600"/>
<path d="M528.5 107V31.48H532.34V107H528.5ZM536.18 107V31.48H540.02V107H536.18ZM543.86 107V31.48H547.7V107H543.86ZM559.22 107V31.48H570.74V107H559.22ZM574.58 107V31.48H586.1V107H574.58Z" fill="#FF6600"/>
<path d="M220.681 123.438H232.806L245.619 154.719H246.15L258.994 123.438H271.212V170H261.556V139.688H261.212L249.119 169.781H242.587L230.619 139.625H230.212V170H220.681V123.438Z" fill="#FF6600"/>
<path d="M316.915 170.625C312.79 170.625 309.082 169.688 305.79 167.812C302.498 165.938 299.894 163.219 297.977 159.656C296.061 156.094 295.102 151.792 295.102 146.75C295.102 141.667 296.061 137.344 297.977 133.781C299.894 130.219 302.498 127.5 305.79 125.625C309.082 123.75 312.79 122.812 316.915 122.812C321.04 122.812 324.738 123.75 328.009 125.625C331.3 127.5 333.905 130.219 335.821 133.781C337.738 137.344 338.696 141.667 338.696 146.75C338.696 151.833 337.738 156.156 335.821 159.719C333.905 163.26 331.3 165.969 328.009 167.844C324.738 169.698 321.04 170.625 316.915 170.625ZM305.071 146.75C305.071 151.667 306.144 155.427 308.29 158.031C310.457 160.635 313.332 161.938 316.915 161.938C320.477 161.938 323.332 160.635 325.477 158.031C327.644 155.427 328.727 151.667 328.727 146.75C328.727 141.812 327.644 138.042 325.477 135.438C323.332 132.812 320.477 131.5 316.915 131.5C313.332 131.5 310.457 132.812 308.29 135.438C306.144 138.042 305.071 141.812 305.071 146.75Z" fill="#FF6600"/>
<path d="M379.149 170H362.649V123.438H379.274C383.961 123.438 387.992 124.375 391.367 126.25C394.742 128.104 397.336 130.771 399.149 134.25C400.982 137.708 401.899 141.854 401.899 146.688C401.899 151.542 400.982 155.708 399.149 159.188C397.336 162.667 394.732 165.344 391.336 167.219C387.94 169.073 383.878 170 379.149 170ZM372.461 161.562H378.711C383.107 161.562 386.44 160.385 388.711 158.031C390.982 155.677 392.117 151.896 392.117 146.688C392.117 141.521 390.982 137.76 388.711 135.406C386.44 133.052 383.107 131.875 378.711 131.875H372.461V161.562Z" fill="#FF6600"/>
<path d="M425.851 170V123.438H444.164C447.705 123.438 450.716 124.115 453.195 125.469C455.695 126.823 457.601 128.688 458.914 131.062C460.226 133.438 460.883 136.167 460.883 139.25C460.883 142.333 460.216 145.052 458.883 147.406C457.549 149.76 455.622 151.604 453.101 152.938C450.58 154.25 447.528 154.906 443.945 154.906H435.664V170H425.851ZM435.664 147.031H442.32C445.174 147.031 447.289 146.312 448.664 144.875C450.06 143.417 450.758 141.542 450.758 139.25C450.758 136.917 450.06 135.042 448.664 133.625C447.268 132.208 445.143 131.5 442.289 131.5H435.664V147.031Z" fill="#FF6600"/>
<path d="M483.929 170V123.438H493.741V143.969H494.335L511.116 123.438H522.897L505.647 144.281L523.116 170H511.304L498.585 150.875L493.741 156.781V170H483.929Z" fill="#FF6600"/>
<path d="M565.881 170.625C561.527 170.625 557.694 169.667 554.381 167.75C551.09 165.812 548.517 163.062 546.662 159.5C544.829 155.917 543.912 151.677 543.912 146.781C543.912 141.74 544.871 137.438 546.787 133.875C548.704 130.292 551.308 127.552 554.6 125.656C557.892 123.76 561.59 122.812 565.694 122.812C569.215 122.812 572.392 123.479 575.225 124.812C578.079 126.146 580.412 127.99 582.225 130.344C584.058 132.698 585.183 135.417 585.6 138.5H575.631C574.985 136.312 573.829 134.604 572.162 133.375C570.496 132.125 568.392 131.5 565.85 131.5C562.287 131.5 559.402 132.823 557.194 135.469C554.985 138.094 553.881 141.833 553.881 146.688C553.881 151.542 554.965 155.302 557.131 157.969C559.319 160.615 562.267 161.938 565.975 161.938C569.225 161.938 571.777 161.094 573.631 159.406C575.506 157.698 576.475 155.396 576.537 152.5H566.569V145.094H586.069V150.969C586.069 155.052 585.204 158.562 583.475 161.5C581.746 164.438 579.36 166.698 576.319 168.281C573.277 169.844 569.798 170.625 565.881 170.625Z" fill="#FF6600"/>
</svg>
